<svg width="70" height="22" viewBox="0 0 70 22" fill="none" xmlns="http://www.w3.org/2000/svg">
<path d="M18.2461 15.3857C17.877 16.1152 17.4067 16.792 16.8354 17.416C16.2729 18.0312 15.6313 18.563 14.9106 19.0112C14.1899 19.4507 13.4429 19.7847 12.6694 20.0132C11.896 20.2417 11.083 20.3647 10.2305 20.3823C9.3252 20.3823 8.45508 20.2549 7.62012 20C6.78516 19.7451 5.98535 19.3716 5.2207 18.8794C4.46484 18.3872 3.79688 17.8071 3.2168 17.1392C2.64551 16.4624 2.18408 15.7153 1.83252 14.8979C1.33154 13.7378 1.08105 12.459 1.08105 11.0615C1.08105 9.88379 1.27441 8.75439 1.66113 7.67334C2.05664 6.5835 2.61914 5.62549 3.34863 4.79932C4.28027 3.771 5.33936 2.99756 6.52588 2.479C7.7124 1.95166 8.98242 1.68799 10.3359 1.68799C10.8633 1.68799 11.3862 1.72754 11.9048 1.80664C13.0298 1.97363 14.1108 2.41748 15.1479 3.13818C16.1851 3.8501 17.0771 4.73779 17.8242 5.80127C18.3076 6.46924 18.668 7.25146 18.9053 8.14795C19.1514 9.03564 19.2744 9.94531 19.2744 10.877C19.2744 12.5732 18.9316 14.0762 18.2461 15.3857ZM16.0444 8.35889C15.8687 7.88428 15.5962 7.40967 15.2271 6.93506C14.8579 6.45166 14.436 6.02979 13.9614 5.66943C13.4868 5.30908 12.9902 5.03662 12.4717 4.85205C11.7246 4.57959 10.96 4.44336 10.1777 4.44336C9.29883 4.44336 8.45947 4.61475 7.65967 4.95752C6.85986 5.2915 6.16992 5.77051 5.58984 6.39453C4.43848 7.65137 3.86279 9.19824 3.86279 11.0352C3.86279 11.9053 4.0166 12.7534 4.32422 13.5796C4.68457 14.5288 5.29102 15.3726 6.14355 16.1108C6.99609 16.8491 7.91895 17.3193 8.91211 17.5215C9.27246 17.5918 9.66797 17.627 10.0986 17.627C10.9336 17.627 11.7202 17.4775 12.4585 17.1787C13.1968 16.8711 13.8779 16.436 14.502 15.8735C14.9326 15.4692 15.3018 15.0034 15.6094 14.4761C15.917 13.9399 16.1455 13.3774 16.2949 12.7886C16.4443 12.1909 16.519 11.5977 16.519 11.0088C16.519 10.0859 16.3608 9.20264 16.0444 8.35889ZM37.3096 19.8682C37.3096 19.9561 37.292 20 37.2568 20H34.7256C34.6465 20 34.5981 19.9824 34.5806 19.9473L32.9062 15.7285H25.0488L23.3745 19.9473C23.3569 19.9824 23.313 20 23.2427 20H20.6851C20.6411 20 20.6191 19.9561 20.6191 19.8682L27.6987 2.29443C27.6987 2.25928 27.7163 2.23291 27.7515 2.21533C27.7866 2.18896 27.813 2.17578 27.8306 2.17578H30.1245C30.186 2.17578 30.2344 2.21533 30.2695 2.29443L37.3096 19.8682ZM31.8779 13.1973L28.9644 5.93311L26.0771 13.1973H31.8779ZM49.1616 12.6304C49.3901 13.2544 49.5044 13.9487 49.5044 14.7134C49.5044 15.4429 49.377 16.1416 49.1221 16.8096C48.876 17.4775 48.52 18.0532 48.0542 18.5366C47.5005 19.0991 46.8457 19.5386 46.0898 19.855C45.3428 20.1714 44.5825 20.3296 43.8091 20.3296C43.0796 20.3296 42.394 20.2021 41.7524 19.9473C41.0845 19.6748 40.4648 19.231 39.8936 18.6157C39.3311 17.9917 38.9268 17.3105 38.6807 16.5723L40.7373 15.1616C40.7988 15.2671 40.8516 15.3813 40.8955 15.5044C40.9482 15.6187 40.9878 15.7153 41.0142 15.7944C41.0493 15.8647 41.0889 15.9351 41.1328 16.0054C41.6338 16.8667 42.3896 17.416 43.4004 17.6533C43.6641 17.6885 43.8618 17.7061 43.9937 17.7061C44.4771 17.7061 44.9253 17.6006 45.3384 17.3896C45.7603 17.1787 46.0898 16.8799 46.3271 16.4932C46.6787 15.9219 46.8545 15.2979 46.8545 14.6211C46.8545 13.9531 46.6567 13.417 46.2612 13.0127C45.8921 12.6348 45.4966 12.3228 45.0747 12.0767C44.6616 11.8306 44.1255 11.5581 43.4663 11.2593C42.8071 10.9517 42.2754 10.688 41.8711 10.4683C41.2119 10.1167 40.6318 9.7124 40.1309 9.25537C39.6387 8.79834 39.3179 8.29297 39.1685 7.73926C39.0366 7.30859 38.9707 6.86914 38.9707 6.4209C38.9707 5.41016 39.2607 4.54443 39.8408 3.82373C40.8604 2.56689 42.1392 1.93848 43.6772 1.93848C44.1431 1.93848 44.5474 1.98242 44.8901 2.07031C45.2856 2.16699 45.7031 2.34717 46.1426 2.61084C46.5908 2.86572 46.9863 3.16895 47.3291 3.52051C47.6719 3.87207 47.9312 4.22803 48.1069 4.58838C47.896 4.73779 47.5444 4.9707 47.0522 5.28711C46.5601 5.60352 46.1997 5.84521 45.9712 6.01221C45.3296 5.06299 44.5825 4.58838 43.73 4.58838C43.5366 4.58838 43.3477 4.61475 43.1631 4.66748C42.8467 4.729 42.5654 4.896 42.3193 5.16846C42.0732 5.43213 41.9238 5.72217 41.8711 6.03857C41.8711 6.99658 42.2095 7.65576 42.8862 8.01611C42.9478 8.04248 43.4487 8.2666 44.3892 8.68848C45.3384 9.11035 46.0854 9.4751 46.6304 9.78271C47.1753 10.0903 47.6719 10.4771 48.1201 10.9429C48.5771 11.3999 48.9243 11.9624 49.1616 12.6304ZM55.0283 19.8945C55.0283 19.9648 54.9932 20 54.9229 20H52.5762C52.5146 20 52.4839 19.9736 52.4839 19.9209V2.29443C52.4839 2.21533 52.5234 2.17578 52.6025 2.17578H54.9492C55.002 2.17578 55.0283 2.20215 55.0283 2.25488V19.8945ZM68.4888 12.6304C68.7173 13.2544 68.8315 13.9487 68.8315 14.7134C68.8315 15.4429 68.7041 16.1416 68.4492 16.8096C68.2031 17.4775 67.8472 18.0532 67.3813 18.5366C66.8276 19.0991 66.1729 19.5386 65.417 19.855C64.6699 20.1714 63.9097 20.3296 63.1362 20.3296C62.4067 20.3296 61.7212 20.2021 61.0796 19.9473C60.4116 19.6748 59.792 19.231 59.2207 18.6157C58.6582 17.9917 58.2539 17.3105 58.0078 16.5723L60.0645 15.1616C60.126 15.2671 60.1787 15.3813 60.2227 15.5044C60.2754 15.6187 60.3149 15.7153 60.3413 15.7944C60.3765 15.8647 60.416 15.9351 60.46 16.0054C60.9609 16.8667 61.7168 17.416 62.7275 17.6533C62.9912 17.6885 63.189 17.7061 63.3208 17.7061C63.8042 17.7061 64.2524 17.6006 64.6655 17.3896C65.0874 17.1787 65.417 16.8799 65.6543 16.4932C66.0059 15.9219 66.1816 15.2979 66.1816 14.6211C66.1816 13.9531 65.9839 13.417 65.5884 13.0127C65.2192 12.6348 64.8237 12.3228 64.4019 12.0767C63.9888 11.8306 63.4526 11.5581 62.7935 11.2593C62.1343 10.9517 61.6025 10.688 61.1982 10.4683C60.5391 10.1167 59.959 9.7124 59.458 9.25537C58.9658 8.79834 58.645 8.29297 58.4956 7.73926C58.3638 7.30859 58.2979 6.86914 58.2979 6.4209C58.2979 5.41016 58.5879 4.54443 59.168 3.82373C60.1875 2.56689 61.4663 1.93848 63.0044 1.93848C63.4702 1.93848 63.8745 1.98242 64.2173 2.07031C64.6128 2.16699 65.0303 2.34717 65.4697 2.61084C65.918 2.86572 66.3135 3.16895 66.6562 3.52051C66.999 3.87207 67.2583 4.22803 67.4341 4.58838C67.2231 4.73779 66.8716 4.9707 66.3794 5.28711C65.8872 5.60352 65.5269 5.84521 65.2983 6.01221C64.6567 5.06299 63.9097 4.58838 63.0571 4.58838C62.8638 4.58838 62.6748 4.61475 62.4902 4.66748C62.1738 4.729 61.8926 4.896 61.6465 5.16846C61.4004 5.43213 61.251 5.72217 61.1982 6.03857C61.1982 6.99658 61.5366 7.65576 62.2134 8.01611C62.2749 8.04248 62.7759 8.2666 63.7163 8.68848C64.6655 9.11035 65.4126 9.4751 65.9575 9.78271C66.5024 10.0903 66.999 10.4771 67.4473 10.9429C67.9043 11.3999 68.2515 11.9624 68.4888 12.6304Z" fill="white"/>
<path d="M18.2461 15.3857L17.5816 15.0379L17.5769 15.0471L18.2461 15.3857ZM16.8354 17.416L16.2823 16.9096L16.2819 16.9099L16.8354 17.416ZM14.9106 19.0112L15.3011 19.6516L15.3067 19.6481L14.9106 19.0112ZM10.2305 20.3823V21.1323H10.2382L10.2459 21.1322L10.2305 20.3823ZM5.2207 18.8794L4.81144 19.5079L4.81477 19.51L5.2207 18.8794ZM3.2168 17.1392L2.64364 17.623L2.65052 17.6309L3.2168 17.1392ZM1.83252 14.8979L2.5215 14.6016L2.52107 14.6006L1.83252 14.8979ZM1.66113 7.67334L0.956114 7.41749L0.954956 7.42072L1.66113 7.67334ZM3.34863 4.79932L2.79277 4.29572L2.78643 4.3029L3.34863 4.79932ZM6.52588 2.479L6.82623 3.16625L6.83048 3.16436L6.52588 2.479ZM11.9048 1.80664L11.7917 2.54807L11.7947 2.54851L11.9048 1.80664ZM15.1479 3.13818L14.7199 3.75409L14.7235 3.75652L15.1479 3.13818ZM17.8242 5.80127L17.2104 6.23243L17.2166 6.24097L17.8242 5.80127ZM18.9053 8.14795L18.1802 8.33988L18.1825 8.34831L18.9053 8.14795ZM16.0444 8.35889L15.3411 8.61937L15.3422 8.62223L16.0444 8.35889ZM15.2271 6.93506L14.631 7.39026L14.635 7.39551L15.2271 6.93506ZM12.4717 4.85205L12.2147 5.55667L12.2202 5.55863L12.4717 4.85205ZM7.65967 4.95752L7.94868 5.64963L7.95511 5.64688L7.65967 4.95752ZM5.58984 6.39453L5.04051 5.88388L5.03682 5.88791L5.58984 6.39453ZM4.32422 13.5796L3.62134 13.8413L3.62304 13.8458L4.32422 13.5796ZM8.91211 17.5215L8.76252 18.2564L8.76848 18.2576L8.91211 17.5215ZM12.4585 17.1787L12.7399 17.874L12.747 17.871L12.4585 17.1787ZM14.502 15.8735L15.0041 16.4306L15.0097 16.4255L15.0153 16.4203L14.502 15.8735ZM15.6094 14.4761L16.2572 14.854L16.2599 14.8493L15.6094 14.4761ZM16.2949 12.7886L17.0219 12.973L17.0225 12.9705L16.2949 12.7886ZM17.5769 15.0471C17.2397 15.7135 16.809 16.3342 16.2823 16.9096L17.3886 17.9225C18.0044 17.2498 18.5142 16.5169 18.9153 15.7244L17.5769 15.0471ZM16.2819 16.9099C15.7665 17.4737 15.1781 17.9617 14.5145 18.3744L15.3067 19.6481C16.0846 19.1643 16.7794 18.5888 17.389 17.9221L16.2819 16.9099ZM14.5202 18.3709C13.8525 18.778 13.165 19.0847 12.4569 19.2939L12.8819 20.7324C13.7207 20.4846 14.5274 20.1234 15.3011 19.6516L14.5202 18.3709ZM12.4569 19.2939C11.7511 19.5025 11.0046 19.6162 10.215 19.6325L10.2459 21.1322C11.1614 21.1133 12.0409 20.9809 12.8819 20.7324L12.4569 19.2939ZM10.2305 19.6323C9.39664 19.6323 8.60048 19.5151 7.83909 19.2827L7.40114 20.7173C8.30967 20.9947 9.25375 21.1323 10.2305 21.1323V19.6323ZM7.83909 19.2827C7.07284 19.0488 6.33568 18.7051 5.62664 18.2487L4.81477 19.51C5.63503 20.038 6.49747 20.4415 7.40114 20.7173L7.83909 19.2827ZM5.62996 18.2509C4.93139 17.796 4.31653 17.2617 3.78307 16.6474L2.65052 17.6309C3.27722 18.3526 3.9983 18.9784 4.81145 19.5079L5.62996 18.2509ZM3.7899 16.6554C3.26648 16.0353 2.84401 15.3515 2.52149 14.6016L1.14354 15.1943C1.52415 16.0792 2.02454 16.8895 2.64369 17.6229L3.7899 16.6554ZM2.52107 14.6006C2.06473 13.5438 1.83105 12.3676 1.83105 11.0615H0.331055C0.331055 12.5504 0.598356 13.9317 1.14397 15.1953L2.52107 14.6006ZM1.83105 11.0615C1.83105 9.96763 2.01034 8.92385 2.36731 7.92596L0.954956 7.42072C0.538489 8.58494 0.331055 9.79995 0.331055 11.0615H1.83105ZM2.36614 7.92919C2.73125 6.92313 3.24681 6.04776 3.91084 5.29573L2.78643 4.3029C1.99147 5.20322 1.38203 6.24387 0.956122 7.41749L2.36614 7.92919ZM3.90445 5.30287C4.77006 4.34744 5.74372 3.63934 6.82623 3.16624L6.22553 1.79177C4.935 2.35578 3.79049 3.19455 2.79282 4.29576L3.90445 5.30287ZM6.83048 3.16436C7.91704 2.68145 9.08281 2.43799 10.3359 2.43799V0.937988C8.88204 0.937988 7.50777 1.22187 6.22127 1.79365L6.83048 3.16436ZM10.3359 2.43799C10.8256 2.43799 11.3108 2.4747 11.7917 2.54806L12.0179 1.06522C11.4617 0.980376 10.9009 0.937988 10.3359 0.937988V2.43799ZM11.7947 2.54851C12.7933 2.69675 13.7671 3.09191 14.72 3.75408L15.5759 2.52229C14.4546 1.74305 13.2663 1.25052 12.0149 1.06477L11.7947 2.54851ZM14.7235 3.75652C15.6844 4.41614 16.5131 5.23964 17.2105 6.23239L18.4379 5.37015C17.6412 4.23595 16.6857 3.28406 15.5724 2.51985L14.7235 3.75652ZM17.2166 6.24097C17.6397 6.82554 17.9636 7.52145 18.1802 8.33987L19.6303 7.95603C19.3723 6.98148 18.9756 6.11294 18.4318 5.36157L17.2166 6.24097ZM18.1825 8.34831C18.4103 9.17001 18.5244 10.0122 18.5244 10.877H20.0244C20.0244 9.87838 19.8924 8.90128 19.628 7.94759L18.1825 8.34831ZM18.5244 10.877C18.5244 12.4701 18.2032 13.8506 17.5816 15.0379L18.9106 15.7336C19.6601 14.3018 20.0244 12.6764 20.0244 10.877H18.5244ZM16.7477 8.0984C16.5409 7.53979 16.2267 6.99873 15.8191 6.4746L14.635 7.39551C14.9657 7.8206 15.1965 8.22877 15.3411 8.61937L16.7477 8.0984ZM15.8231 6.47987C15.4139 5.94402 14.9444 5.47405 14.415 5.0721L13.5079 6.26677C13.9277 6.58552 14.3019 6.9593 14.631 7.39024L15.8231 6.47987ZM14.415 5.0721C13.8841 4.66901 13.32 4.35791 12.7232 4.14547L12.2202 5.55863C12.6604 5.71533 13.0896 5.94915 13.5079 6.26677L14.415 5.0721ZM12.7287 4.14745C11.9006 3.84546 11.0491 3.69336 10.1777 3.69336V5.19336C10.8708 5.19336 11.5486 5.31372 12.2147 5.55665L12.7287 4.14745ZM10.1777 3.69336C9.19831 3.69336 8.25835 3.88497 7.36423 4.26816L7.95511 5.64688C8.66059 5.34453 9.39935 5.19336 10.1777 5.19336V3.69336ZM7.37067 4.26544C6.4739 4.63991 5.69473 5.18013 5.04052 5.8839L6.13916 6.90517C6.64512 6.36088 7.24583 5.9431 7.94867 5.6496L7.37067 4.26544ZM5.03682 5.88791C3.74842 7.29434 3.11279 9.02657 3.11279 11.0352H4.61279C4.61279 9.36992 5.12854 8.0084 6.14287 6.90115L5.03682 5.88791ZM3.11279 11.0352C3.11279 11.9958 3.28299 12.9325 3.62136 13.8413L5.02708 13.3179C4.75022 12.5743 4.61279 11.8147 4.61279 11.0352H3.11279ZM3.62304 13.8458C4.0322 14.9235 4.71674 15.8674 5.65258 16.6778L6.63453 15.5439C5.86529 14.8777 5.33694 14.1341 5.02539 13.3134L3.62304 13.8458ZM5.65258 16.6778C6.59136 17.4908 7.62922 18.0257 8.76252 18.2564L9.0617 16.7866C8.20867 16.6129 7.40083 16.2075 6.63453 15.5439L5.65258 16.6778ZM8.76848 18.2576C9.18343 18.3386 9.62779 18.377 10.0986 18.377V16.877C9.70814 16.877 9.36149 16.845 9.05574 16.7854L8.76848 18.2576ZM10.0986 18.377C11.0253 18.377 11.9079 18.2107 12.7399 17.8739L12.1771 16.4835C11.5325 16.7444 10.8419 16.877 10.0986 16.877V18.377ZM12.747 17.871C13.5675 17.5291 14.3202 17.0471 15.0041 16.4306L13.9998 15.3165C13.4356 15.825 12.8261 16.2131 12.17 16.4864L12.747 17.871ZM15.0153 16.4203C15.5004 15.9649 15.9144 15.4417 16.2572 14.854L14.9615 14.0982C14.6891 14.5651 14.3648 14.9736 13.9886 15.3267L15.0153 16.4203ZM16.2599 14.8493C16.6009 14.2551 16.8554 13.6292 17.0219 12.973L15.568 12.6041C15.4356 13.1257 15.2331 13.6248 14.9588 14.1028L16.2599 14.8493ZM17.0225 12.9705C17.1861 12.3161 17.269 11.6617 17.269 11.0088H15.769C15.769 11.5336 15.7025 12.0658 15.5673 12.6067L17.0225 12.9705ZM17.269 11.0088C17.269 9.99821 17.0954 9.02555 16.7467 8.09554L15.3422 8.62223C15.6262 9.37973 15.769 10.1737 15.769 11.0088H17.269ZM37.3096 19.8682H38.0596V19.7235L38.0058 19.5893L37.3096 19.8682ZM34.5806 19.9473L33.8835 20.2239L33.8953 20.2539L33.9097 20.2827L34.5806 19.9473ZM32.9062 15.7285L33.6034 15.4519L33.4155 14.9785H32.9062V15.7285ZM25.0488 15.7285V14.9785H24.5396L24.3517 15.4519L25.0488 15.7285ZM23.3745 19.9473L24.0453 20.2827L24.0597 20.2539L24.0716 20.2239L23.3745 19.9473ZM20.6191 19.8682L19.9235 19.5879L19.8691 19.7228V19.8682H20.6191ZM27.6987 2.29443L28.3944 2.57469L28.4487 2.43983V2.29443H27.6987ZM27.7515 2.21533L28.0869 2.88615L28.1474 2.85591L28.2015 2.81533L27.7515 2.21533ZM30.2695 2.29443L30.9657 2.01553L30.9606 2.00258L30.9549 1.98983L30.2695 2.29443ZM31.8779 13.1973V13.9473H32.9868L32.574 12.9181L31.8779 13.1973ZM28.9644 5.93311L29.6605 5.65391L28.9612 3.9105L28.2674 5.65609L28.9644 5.93311ZM26.0771 13.1973L25.3802 12.9202L24.972 13.9473H26.0771V13.1973ZM36.5596 19.8682C36.5596 19.8668 36.5595 19.8516 36.5629 19.8267C36.5658 19.8044 36.5742 19.7531 36.6 19.6885C36.6252 19.6255 36.6813 19.5143 36.7998 19.4156C36.9315 19.3058 37.0948 19.25 37.2568 19.25V20.75C37.4364 20.75 37.6151 20.6887 37.76 20.5679C37.8917 20.4582 37.9588 20.3306 37.9927 20.2456C38.0555 20.0887 38.0596 19.94 38.0596 19.8682H36.5596ZM37.2568 19.25H34.7256V20.75H37.2568V19.25ZM34.7256 19.25C34.7316 19.25 34.7965 19.2493 34.8863 19.282C34.9851 19.3179 35.1505 19.41 35.2514 19.6119L33.9097 20.2827C34.0283 20.5197 34.2266 20.6382 34.3737 20.6917C34.5119 20.7419 34.6405 20.75 34.7256 20.75V19.25ZM35.2777 19.6706L33.6034 15.4519L32.2091 16.0052L33.8835 20.2239L35.2777 19.6706ZM32.9062 14.9785H25.0488V16.4785H32.9062V14.9785ZM24.3517 15.4519L22.6774 19.6706L24.0716 20.2239L25.7459 16.0052L24.3517 15.4519ZM22.7037 19.6119C22.7931 19.433 22.9378 19.3353 23.0498 19.2905C23.1485 19.251 23.2244 19.25 23.2427 19.25V20.75C23.3662 20.75 23.8229 20.7276 24.0453 20.2827L22.7037 19.6119ZM23.2427 19.25H20.6851V20.75H23.2427V19.25ZM20.6851 19.25C20.8053 19.25 20.944 19.2822 21.0722 19.3677C21.1958 19.4501 21.2674 19.5536 21.3064 19.6316C21.344 19.7067 21.3576 19.7699 21.3631 19.8025C21.3688 19.8372 21.3691 19.8609 21.3691 19.8682H19.8691C19.8691 19.9504 19.8755 20.1238 19.9648 20.3025C20.0148 20.4024 20.1002 20.5224 20.2402 20.6158C20.3849 20.7123 20.5428 20.75 20.6851 20.75V19.25ZM21.3148 20.1484L28.3944 2.57469L27.0031 2.01418L19.9235 19.5879L21.3148 20.1484ZM28.4487 2.29443C28.4487 2.40809 28.4182 2.541 28.336 2.66432C28.2569 2.78293 28.1583 2.85046 28.0869 2.88615L27.4161 1.54451C27.3095 1.59779 27.1845 1.68728 27.0879 1.83227C26.9881 1.98195 26.9487 2.14562 26.9487 2.29443H28.4487ZM28.2015 2.81533C28.1987 2.81739 28.1745 2.83577 28.133 2.85649C28.1114 2.86732 28.0767 2.88298 28.0312 2.89662C27.9869 2.90994 27.9175 2.92578 27.8306 2.92578V1.42578C27.6518 1.42578 27.5178 1.48703 27.4622 1.51485C27.3944 1.54875 27.3394 1.58691 27.3015 1.61533L28.2015 2.81533ZM27.8306 2.92578H30.1245V1.42578H27.8306V2.92578ZM30.1245 2.92578C29.9793 2.92578 29.8396 2.87395 29.732 2.78591C29.6373 2.70845 29.5969 2.62761 29.5842 2.59904L30.9549 1.98983C30.8567 1.76895 30.6017 1.42578 30.1245 1.42578V2.92578ZM29.5733 2.57334L36.6134 20.1471L38.0058 19.5893L30.9657 2.01553L29.5733 2.57334ZM32.574 12.9181L29.6605 5.65391L28.2683 6.2123L31.1818 13.4765L32.574 12.9181ZM28.2674 5.65609L25.3802 12.9202L26.7741 13.4743L29.6613 6.21012L28.2674 5.65609ZM26.0771 13.9473H31.8779V12.4473H26.0771V13.9473ZM49.1616 12.6304L48.4549 12.8815L48.4574 12.8883L49.1616 12.6304ZM49.1221 16.8096L48.4213 16.5422L48.4183 16.5503L49.1221 16.8096ZM48.0542 18.5366L48.5887 19.0628L48.5943 19.057L48.0542 18.5366ZM46.0898 19.855L45.8002 19.1631L45.7973 19.1644L46.0898 19.855ZM41.7524 19.9473L41.4692 20.6417L41.4755 20.6443L41.7524 19.9473ZM39.8936 18.6157L39.3364 19.1179L39.344 19.1261L39.8936 18.6157ZM38.6807 16.5723L38.2564 15.9538L37.7905 16.2734L37.9692 16.8094L38.6807 16.5723ZM40.7373 15.1616L41.3851 14.7837L40.9785 14.0867L40.3131 14.5431L40.7373 15.1616ZM40.8955 15.5044L40.1892 15.7566L40.2005 15.7882L40.2145 15.8187L40.8955 15.5044ZM41.0142 15.7944L40.3026 16.0316L40.3195 16.0822L40.3433 16.1298L41.0142 15.7944ZM41.1328 16.0054L41.7811 15.6283L41.7751 15.618L41.7688 15.6079L41.1328 16.0054ZM43.4004 17.6533L43.229 18.3835L43.2648 18.3919L43.3013 18.3967L43.4004 17.6533ZM45.3384 17.3896L45.003 16.7188L44.9973 16.7217L45.3384 17.3896ZM46.3271 16.4932L45.6884 16.1001L45.6879 16.1009L46.3271 16.4932ZM46.2612 13.0127L45.7247 13.5368L45.7251 13.5372L46.2612 13.0127ZM45.0747 12.0767L44.6908 12.721L44.6968 12.7245L45.0747 12.0767ZM43.4663 11.2593L43.1491 11.939L43.1566 11.9424L43.4663 11.2593ZM41.8711 10.4683L42.2292 9.80927L42.224 9.8065L41.8711 10.4683ZM40.1309 9.25537L39.6205 9.80499L39.6254 9.80945L40.1309 9.25537ZM39.1685 7.73926L39.8926 7.54387L39.8893 7.53174L39.8856 7.51972L39.1685 7.73926ZM39.8408 3.82373L39.2584 3.35124L39.2566 3.35347L39.8408 3.82373ZM44.8901 2.07031L44.7038 2.79686L44.712 2.79886L44.8901 2.07031ZM46.1426 2.61084L45.7567 3.25396L45.7642 3.25847L45.7719 3.26281L46.1426 2.61084ZM48.1069 4.58838L48.5404 5.2004L49.0603 4.83215L48.781 4.25956L48.1069 4.58838ZM45.9712 6.01221L45.3498 6.43221L45.7855 7.07681L46.4137 6.61775L45.9712 6.01221ZM43.1631 4.66748L43.3062 5.40369L43.338 5.39751L43.3691 5.38862L43.1631 4.66748ZM42.3193 5.16846L42.8677 5.68026L42.8759 5.67117L42.3193 5.16846ZM41.8711 6.03857L41.1313 5.91527L41.1211 5.9765V6.03857H41.8711ZM42.8862 8.01611L42.5337 8.67812L42.5617 8.693L42.5908 8.70547L42.8862 8.01611ZM44.3892 8.68848L44.0822 9.37278L44.0846 9.37384L44.3892 8.68848ZM48.1201 10.9429L47.5797 11.4629L47.5847 11.4681L47.5898 11.4732L48.1201 10.9429ZM48.4574 12.8883C48.6514 13.4182 48.7544 14.0237 48.7544 14.7134H50.2544C50.2544 13.8738 50.1288 13.0905 49.8659 12.3725L48.4574 12.8883ZM48.7544 14.7134C48.7544 15.3534 48.643 15.9614 48.4214 16.5422L49.8228 17.077C50.1109 16.3218 50.2544 15.5324 50.2544 14.7134H48.7544ZM48.4183 16.5503C48.2059 17.1268 47.9036 17.612 47.5141 18.0162L48.5943 19.057C49.1364 18.4944 49.546 17.8283 49.8258 17.0688L48.4183 16.5503ZM47.5197 18.0105C47.0385 18.4993 46.4679 18.8837 45.8002 19.1631L46.3794 20.5468C47.2235 20.1935 47.9625 19.6989 48.5887 19.0628L47.5197 18.0105ZM45.7973 19.1644C45.1382 19.4435 44.4771 19.5796 43.8091 19.5796V21.0796C44.6879 21.0796 45.5473 20.8992 46.3823 20.5456L45.7973 19.1644ZM43.8091 19.5796C43.169 19.5796 42.5779 19.4682 42.0293 19.2503L41.4755 20.6443C42.2102 20.9361 42.9902 21.0796 43.8091 21.0796V19.5796ZM42.0357 19.2528C41.4841 19.0278 40.9522 18.6536 40.4431 18.1054L39.344 19.1261C39.9775 19.8083 40.6848 20.3218 41.4692 20.6417L42.0357 19.2528ZM40.4506 18.1136C39.9517 17.5601 39.6031 16.9678 39.3922 16.3351L37.9692 16.8094C38.2505 17.6533 38.7104 18.4233 39.3365 19.1179L40.4506 18.1136ZM39.1049 17.1908L41.1615 15.7801L40.3131 14.5431L38.2564 15.9538L39.1049 17.1908ZM40.0895 15.5395C40.1261 15.6023 40.1597 15.6742 40.1892 15.7566L41.6018 15.2521C41.5434 15.0885 41.4716 14.9319 41.3851 14.7837L40.0895 15.5395ZM40.2145 15.8187C40.2609 15.9191 40.2882 15.9883 40.3026 16.0316L41.7257 15.5573C41.6874 15.4423 41.6356 15.3182 41.5765 15.1901L40.2145 15.8187ZM40.3433 16.1298C40.3897 16.2225 40.441 16.3135 40.4968 16.4029L41.7688 15.6079C41.7368 15.5566 41.709 15.507 41.685 15.459L40.3433 16.1298ZM40.4845 16.3825C41.0939 17.4303 42.027 18.1013 43.229 18.3835L43.5718 16.9232C42.7523 16.7308 42.1736 16.3031 41.7811 15.6283L40.4845 16.3825ZM43.3013 18.3967C43.5718 18.4328 43.81 18.4561 43.9937 18.4561V16.9561C43.9136 16.9561 43.7563 16.9441 43.4995 16.9099L43.3013 18.3967ZM43.9937 18.4561C44.5905 18.4561 45.1563 18.3248 45.6795 18.0576L44.9973 16.7217C44.6943 16.8764 44.3636 16.9561 43.9937 16.9561V18.4561ZM45.6738 18.0605C46.2158 17.7895 46.6528 17.3964 46.9664 16.8854L45.6879 16.1009C45.5269 16.3633 45.3047 16.5679 45.003 16.7188L45.6738 18.0605ZM46.9659 16.8862C47.3909 16.1956 47.6045 15.4353 47.6045 14.6211H46.1045C46.1045 15.1604 45.9665 15.6481 45.6884 16.1001L46.9659 16.8862ZM47.6045 14.6211C47.6045 13.7951 47.3545 13.0577 46.7974 12.4882L45.7251 13.5372C45.959 13.7763 46.1045 14.1111 46.1045 14.6211H47.6045ZM46.7978 12.4886C46.3854 12.0664 45.9372 11.7115 45.4526 11.4288L44.6968 12.7245C45.0559 12.934 45.3988 13.2031 45.7247 13.5368L46.7978 12.4886ZM45.4586 11.4323C45.0128 11.1668 44.4493 10.8814 43.776 10.5762L43.1566 11.9424C43.8017 12.2348 44.3105 12.4944 44.6909 12.721L45.4586 11.4323ZM43.7835 10.5796C43.1312 10.2753 42.6147 10.0188 42.2292 9.80929L41.513 11.1272C41.9361 11.3572 42.483 11.6281 43.1491 11.9389L43.7835 10.5796ZM42.224 9.8065C41.6145 9.48139 41.0867 9.1122 40.6363 8.7013L39.6254 9.80945C40.1769 10.3126 40.8094 10.752 41.5182 11.13L42.224 9.8065ZM40.6412 8.70578C40.2341 8.3278 39.9994 7.93999 39.8926 7.54387L38.4444 7.93465C38.6363 8.64595 39.0432 9.26888 39.6205 9.80497L40.6412 8.70578ZM39.8856 7.51972C39.7754 7.15986 39.7207 6.79438 39.7207 6.4209H38.2207C38.2207 6.9439 38.2978 7.45733 38.4513 7.95879L39.8856 7.51972ZM39.7207 6.4209C39.7207 5.56434 39.9624 4.86884 40.4251 4.29399L39.2566 3.35347C38.5591 4.22002 38.2207 5.25597 38.2207 6.4209H39.7207ZM40.4233 4.29621C41.309 3.20438 42.3785 2.68848 43.6772 2.68848V1.18848C41.8999 1.18848 40.4117 1.92941 39.2584 3.35125L40.4233 4.29621ZM43.6772 2.68848C44.0988 2.68848 44.4376 2.72854 44.7039 2.79681L45.0764 1.34381C44.6571 1.2363 44.1873 1.18848 43.6772 1.18848V2.68848ZM44.712 2.79886C45.0183 2.87373 45.3659 3.01949 45.7567 3.25396L46.5285 1.96772C46.0403 1.67485 45.553 1.46025 45.0682 1.34176L44.712 2.79886ZM45.7719 3.26281C46.162 3.48465 46.5009 3.74538 46.7921 4.04408L47.8661 2.99693C47.4718 2.59251 47.0196 2.24679 46.5133 1.95887L45.7719 3.26281ZM46.7921 4.04408C47.0912 4.35081 47.299 4.64269 47.4329 4.9172L48.781 4.25956C48.5634 3.81337 48.2526 3.39333 47.8661 2.99693L46.7921 4.04408ZM47.6734 3.97636C47.4774 4.11522 47.1382 4.34028 46.6467 4.65623L47.4578 5.91799C47.9507 5.60113 48.3146 5.36037 48.5404 5.2004L47.6734 3.97636ZM46.6467 4.65623C46.1522 4.97411 45.7762 5.22579 45.5287 5.40666L46.4137 6.61775C46.6232 6.46464 46.9679 6.23293 47.4578 5.91799L46.6467 4.65623ZM46.5926 5.59221C45.8643 4.51485 44.9131 3.83838 43.73 3.83838V5.33838C44.2519 5.33838 44.7948 5.61113 45.3498 6.43221L46.5926 5.59221ZM43.73 3.83838C43.4674 3.83838 43.2091 3.87432 42.957 3.94634L43.3691 5.38862C43.4862 5.35518 43.6058 5.33838 43.73 5.33838V3.83838ZM43.0199 3.93127C42.5224 4.02802 42.1019 4.29025 41.7628 4.66574L42.8759 5.67117C43.0289 5.50175 43.171 5.42999 43.3062 5.40369L43.0199 3.93127ZM41.771 4.65672C41.4373 5.01435 41.2112 5.43572 41.1313 5.91527L42.6109 6.16187C42.6364 6.00862 42.7092 5.84991 42.8676 5.6802L41.771 4.65672ZM41.1211 6.03857C41.1211 7.19194 41.5477 8.15309 42.5337 8.67812L43.2387 7.35411C42.8712 7.15844 42.6211 6.80122 42.6211 6.03857H41.1211ZM42.5908 8.70547C42.6447 8.72856 43.1359 8.94828 44.0822 9.37278L44.6961 8.00418C43.7616 7.58493 43.2509 7.35641 43.1817 7.32675L42.5908 8.70547ZM44.0846 9.37384C45.0241 9.79142 45.7467 10.1451 46.2617 10.4358L46.9991 9.1296C46.4242 8.80509 45.6526 8.42928 44.6938 8.00312L44.0846 9.37384ZM46.2617 10.4358C46.7411 10.7065 47.1802 11.0478 47.5797 11.4629L48.6605 10.4228C48.1635 9.9063 47.6095 9.47418 46.9991 9.1296L46.2617 10.4358ZM47.5898 11.4732C47.9606 11.844 48.2512 12.3082 48.4549 12.8814L49.8683 12.3793C49.5974 11.6166 49.1937 10.9558 48.6504 10.4125L47.5898 11.4732ZM54.2783 19.8945C54.2783 19.8141 54.2989 19.616 54.4716 19.4433C54.6443 19.2706 54.8424 19.25 54.9229 19.25V20.75C55.0736 20.75 55.3244 20.7118 55.5323 20.504C55.7401 20.2961 55.7783 20.0453 55.7783 19.8945H54.2783ZM54.9229 19.25H52.5762V20.75H54.9229V19.25ZM52.5762 19.25C52.6352 19.25 52.8193 19.2602 52.9951 19.4108C53.1929 19.5804 53.2339 19.7989 53.2339 19.9209H51.7339C51.7339 20.0957 51.7903 20.3537 52.0189 20.5497C52.2253 20.7266 52.4557 20.75 52.5762 20.75V19.25ZM53.2339 19.9209V2.29443H51.7339V19.9209H53.2339ZM53.2339 2.29443C53.2339 2.37049 53.2144 2.56529 53.0439 2.73577C52.8734 2.90626 52.6786 2.92578 52.6025 2.92578V1.42578C52.4474 1.42578 52.1933 1.46508 51.9832 1.67511C51.7732 1.88515 51.7339 2.13927 51.7339 2.29443H53.2339ZM52.6025 2.92578H54.9492V1.42578H52.6025V2.92578ZM54.9492 2.92578C54.86 2.92578 54.6553 2.90296 54.4782 2.72589C54.3011 2.54881 54.2783 2.34412 54.2783 2.25488H55.7783C55.7783 2.11291 55.7423 1.86867 55.5389 1.66523C55.3354 1.46178 55.0912 1.42578 54.9492 1.42578V2.92578ZM54.2783 2.25488V19.8945H55.7783V2.25488H54.2783ZM68.4888 12.6304L67.782 12.8815L67.7845 12.8883L68.4888 12.6304ZM68.4492 16.8096L67.7485 16.5422L67.7455 16.5503L68.4492 16.8096ZM67.3813 18.5366L67.9159 19.0628L67.9214 19.057L67.3813 18.5366ZM65.417 19.855L65.1274 19.1631L65.1245 19.1644L65.417 19.855ZM61.0796 19.9473L60.7963 20.6417L60.8027 20.6443L61.0796 19.9473ZM59.2207 18.6157L58.6636 19.1179L58.6711 19.1261L59.2207 18.6157ZM58.0078 16.5723L57.5836 15.9538L57.1176 16.2734L57.2963 16.8094L58.0078 16.5723ZM60.0645 15.1616L60.7123 14.7837L60.3057 14.0867L59.6402 14.5431L60.0645 15.1616ZM60.2227 15.5044L59.5163 15.7566L59.5276 15.7882L59.5417 15.8187L60.2227 15.5044ZM60.3413 15.7944L59.6298 16.0316L59.6467 16.0822L59.6705 16.1298L60.3413 15.7944ZM60.46 16.0054L61.1083 15.6283L61.1023 15.618L61.096 15.6079L60.46 16.0054ZM62.7275 17.6533L62.5561 18.3835L62.5919 18.3919L62.6284 18.3967L62.7275 17.6533ZM64.6655 17.3896L64.3301 16.7188L64.3244 16.7217L64.6655 17.3896ZM65.6543 16.4932L65.0156 16.1001L65.0151 16.1009L65.6543 16.4932ZM65.5884 13.0127L65.0518 13.5368L65.0523 13.5372L65.5884 13.0127ZM64.4019 12.0767L64.018 12.721L64.0239 12.7245L64.4019 12.0767ZM62.7935 11.2593L62.4763 11.939L62.4838 11.9424L62.7935 11.2593ZM61.1982 10.4683L61.5564 9.80927L61.5512 9.8065L61.1982 10.4683ZM59.458 9.25537L58.9477 9.80499L58.9525 9.80945L59.458 9.25537ZM58.4956 7.73926L59.2197 7.54387L59.2164 7.53174L59.2128 7.51972L58.4956 7.73926ZM59.168 3.82373L58.5855 3.35124L58.5837 3.35347L59.168 3.82373ZM64.2173 2.07031L64.031 2.79686L64.0392 2.79886L64.2173 2.07031ZM65.4697 2.61084L65.0839 3.25396L65.0914 3.25847L65.099 3.26281L65.4697 2.61084ZM67.4341 4.58838L67.8676 5.2004L68.3875 4.83215L68.1082 4.25956L67.4341 4.58838ZM65.2983 6.01221L64.677 6.43221L65.1127 7.07681L65.7409 6.61775L65.2983 6.01221ZM62.4902 4.66748L62.6334 5.40369L62.6652 5.39751L62.6963 5.38862L62.4902 4.66748ZM61.6465 5.16846L62.1948 5.68026L62.2031 5.67117L61.6465 5.16846ZM61.1982 6.03857L60.4584 5.91527L60.4482 5.9765V6.03857H61.1982ZM62.2134 8.01611L61.8609 8.67812L61.8888 8.693L61.9179 8.70547L62.2134 8.01611ZM63.7163 8.68848L63.4093 9.37278L63.4117 9.37384L63.7163 8.68848ZM67.4473 10.9429L66.9068 11.4629L66.9118 11.4681L66.9169 11.4732L67.4473 10.9429ZM67.7845 12.8883C67.9786 13.4182 68.0815 14.0237 68.0815 14.7134H69.5815C69.5815 13.8738 69.456 13.0905 69.193 12.3725L67.7845 12.8883ZM68.0815 14.7134C68.0815 15.3534 67.9701 15.9614 67.7485 16.5422L69.1499 17.077C69.4381 16.3218 69.5815 15.5324 69.5815 14.7134H68.0815ZM67.7455 16.5503C67.5331 17.1268 67.2308 17.612 66.8413 18.0162L67.9214 19.057C68.4636 18.4944 68.8732 17.8283 69.153 17.0688L67.7455 16.5503ZM66.8469 18.0105C66.3656 18.4993 65.795 18.8837 65.1274 19.1631L65.7066 20.5468C66.5507 20.1935 67.2896 19.6989 67.9158 19.0628L66.8469 18.0105ZM65.1245 19.1644C64.4653 19.4435 63.8043 19.5796 63.1362 19.5796V21.0796C64.0151 21.0796 64.8745 20.8992 65.7095 20.5456L65.1245 19.1644ZM63.1362 19.5796C62.4961 19.5796 61.905 19.4682 61.3565 19.2503L60.8027 20.6443C61.5373 20.9361 62.3174 21.0796 63.1362 21.0796V19.5796ZM61.3629 19.2528C60.8113 19.0278 60.2794 18.6536 59.7703 18.1054L58.6711 19.1261C59.3046 19.8083 60.012 20.3218 60.7963 20.6417L61.3629 19.2528ZM59.7778 18.1136C59.2789 17.5601 58.9302 16.9678 58.7193 16.3351L57.2963 16.8094C57.5776 17.6533 58.0375 18.4233 58.6636 19.1179L59.7778 18.1136ZM58.432 17.1908L60.4887 15.7801L59.6402 14.5431L57.5836 15.9538L58.432 17.1908ZM59.4166 15.5395C59.4533 15.6023 59.4869 15.6742 59.5163 15.7566L60.929 15.2521C60.8705 15.0885 60.7987 14.9319 60.7123 14.7837L59.4166 15.5395ZM59.5417 15.8187C59.588 15.9191 59.6154 15.9883 59.6298 16.0316L61.0528 15.5573C61.0145 15.4423 60.9628 15.3182 60.9036 15.1901L59.5417 15.8187ZM59.6705 16.1298C59.7168 16.2225 59.7681 16.3135 59.824 16.4029L61.096 15.6079C61.0639 15.5566 61.0361 15.507 61.0121 15.459L59.6705 16.1298ZM59.8116 16.3825C60.4211 17.4303 61.3541 18.1013 62.5561 18.3835L62.899 16.9232C62.0795 16.7308 61.5008 16.3031 61.1083 15.6283L59.8116 16.3825ZM62.6284 18.3967C62.899 18.4328 63.1372 18.4561 63.3208 18.4561V16.9561C63.2408 16.9561 63.0835 16.9441 62.8267 16.9099L62.6284 18.3967ZM63.3208 18.4561C63.9176 18.4561 64.4834 18.3248 65.0066 18.0576L64.3244 16.7217C64.0215 16.8764 63.6908 16.9561 63.3208 16.9561V18.4561ZM65.0009 18.0605C65.5429 17.7895 65.98 17.3964 66.2935 16.8854L65.0151 16.1009C64.854 16.3633 64.6319 16.5679 64.3301 16.7188L65.0009 18.0605ZM66.293 16.8862C66.718 16.1956 66.9316 15.4353 66.9316 14.6211H65.4316C65.4316 15.1604 65.2937 15.6481 65.0156 16.1001L66.293 16.8862ZM66.9316 14.6211C66.9316 13.7951 66.6816 13.0577 66.1245 12.4882L65.0523 13.5372C65.2862 13.7763 65.4316 14.1111 65.4316 14.6211H66.9316ZM66.1249 12.4886C65.7125 12.0664 65.2644 11.7115 64.7798 11.4288L64.0239 12.7245C64.3831 12.934 64.726 13.2031 65.0518 13.5368L66.1249 12.4886ZM64.7857 11.4323C64.3399 11.1668 63.7764 10.8814 63.1031 10.5762L62.4838 11.9424C63.1289 12.2348 63.6376 12.4944 64.018 12.721L64.7857 11.4323ZM63.1106 10.5796C62.4584 10.2753 61.9419 10.0188 61.5564 9.80929L60.8401 11.1272C61.2632 11.3572 61.8102 11.6281 62.4763 11.9389L63.1106 10.5796ZM61.5512 9.8065C60.9416 9.48139 60.4139 9.1122 59.9635 8.7013L58.9525 9.80945C59.5041 10.3126 60.1365 10.752 60.8453 11.13L61.5512 9.8065ZM59.9683 8.70578C59.5613 8.3278 59.3266 7.93999 59.2197 7.54387L57.7715 7.93465C57.9634 8.64595 58.3703 9.26888 58.9477 9.80497L59.9683 8.70578ZM59.2128 7.51972C59.1026 7.15986 59.0479 6.79438 59.0479 6.4209H57.5479C57.5479 6.9439 57.6249 7.45733 57.7785 7.95879L59.2128 7.51972ZM59.0479 6.4209C59.0479 5.56434 59.2895 4.86884 59.7522 4.29399L58.5837 3.35347C57.8862 4.22002 57.5479 5.25597 57.5479 6.4209H59.0479ZM59.7504 4.29621C60.6361 3.20438 61.7056 2.68848 63.0044 2.68848V1.18848C61.227 1.18848 59.7389 1.92941 58.5855 3.35125L59.7504 4.29621ZM63.0044 2.68848C63.4259 2.68848 63.7648 2.72854 64.031 2.79681L64.4036 1.34381C63.9843 1.2363 63.5145 1.18848 63.0044 1.18848V2.68848ZM64.0392 2.79886C64.3455 2.87373 64.6931 3.01949 65.0839 3.25396L65.8556 1.96772C65.3675 1.67485 64.8801 1.46025 64.3954 1.34176L64.0392 2.79886ZM65.099 3.26281C65.4891 3.48465 65.828 3.74538 66.1192 4.04408L67.1933 2.99693C66.7989 2.59251 66.3468 2.24679 65.8405 1.95887L65.099 3.26281ZM66.1192 4.04408C66.4183 4.35081 66.6261 4.64269 66.76 4.9172L68.1082 4.25956C67.8905 3.81337 67.5797 3.39333 67.1933 2.99693L66.1192 4.04408ZM67.0006 3.97636C66.8045 4.11522 66.4653 4.34028 65.9738 4.65623L66.785 5.91799C67.2779 5.60113 67.6418 5.36037 67.8676 5.2004L67.0006 3.97636ZM65.9738 4.65623C65.4793 4.97411 65.1033 5.22579 64.8558 5.40666L65.7409 6.61775C65.9504 6.46464 66.2951 6.23293 66.785 5.91799L65.9738 4.65623ZM65.9197 5.59221C65.1915 4.51485 64.2403 3.83838 63.0571 3.83838V5.33838C63.5791 5.33838 64.122 5.61113 64.677 6.43221L65.9197 5.59221ZM63.0571 3.83838C62.7946 3.83838 62.5363 3.87432 62.2842 3.94634L62.6963 5.38862C62.8133 5.35518 62.9329 5.33838 63.0571 5.33838V3.83838ZM62.3471 3.93127C61.8495 4.02802 61.4291 4.29025 61.0899 4.66574L62.2031 5.67117C62.3561 5.50175 62.4981 5.42999 62.6334 5.40369L62.3471 3.93127ZM61.0982 4.65672C60.7644 5.01435 60.5384 5.43572 60.4584 5.91527L61.938 6.16187C61.9636 6.00862 62.0364 5.84991 62.1948 5.6802L61.0982 4.65672ZM60.4482 6.03857C60.4482 7.19194 60.8749 8.15309 61.8609 8.67812L62.5659 7.35411C62.1984 7.15844 61.9482 6.80122 61.9482 6.03857H60.4482ZM61.9179 8.70547C61.9718 8.72856 62.4631 8.94828 63.4093 9.37278L64.0233 8.00418C63.0887 7.58493 62.578 7.35641 62.5088 7.32675L61.9179 8.70547ZM63.4117 9.37384C64.3513 9.79142 65.0738 10.1451 65.5888 10.4358L66.3262 9.1296C65.7514 8.80509 64.9798 8.42928 64.0209 8.00312L63.4117 9.37384ZM65.5888 10.4358C66.0683 10.7065 66.5074 11.0478 66.9068 11.4629L67.9877 10.4228C67.4907 9.9063 66.9366 9.47418 66.3262 9.1296L65.5888 10.4358ZM66.9169 11.4732C67.2878 11.844 67.5784 12.3082 67.782 12.8814L69.1955 12.3793C68.9245 11.6166 68.5208 10.9558 67.9776 10.4125L66.9169 11.4732Z" fill="white"/>
</svg>
